<svg width="337" height="400" viewBox="0 0 337 400" fill="none" xmlns="http://www.w3.org/2000/svg">
<path d="M1.79059 108.656C1.78152 108.675 1.77266 108.695 1.76379 108.714C1.77391 108.711 1.78426 108.708 1.79438 108.705C1.7929 108.689 1.79205 108.672 1.79059 108.656Z" fill="white"/>
<path d="M122.105 255.147C57.0639 236.204 8.28902 178.669 1.79503 108.707C1.78471 108.71 0.865906 111.04 0.865906 112.368V286.926C0.865906 290.459 2.27897 293.993 5.8125 295.406L162.703 398.587C164.117 399.293 166.237 400 168.357 400C168.404 400 168.449 399.99 168.496 399.989C138.962 368.323 120.735 325.032 120.735 277.261C120.735 269.765 121.235 262.396 122.105 255.147Z" fill="url(#paint0_linear_203_329)"/>
<path d="M288.415 101.599C241.519 101.599 199.142 121.79 168.711 154.298C193.73 181.025 210.629 216.088 215.316 255.148C280.357 236.205 329.132 178.669 335.626 108.707C320.646 104.109 304.815 101.599 288.415 101.599Z" fill="url(#paint1_linear_203_329)"/>
<path d="M49.0062 101.598C32.6067 101.598 16.7754 104.109 1.79529 108.707C8.28928 178.669 57.0641 236.205 122.105 255.147C126.792 216.088 143.692 181.025 168.711 154.298C138.28 121.789 95.9023 101.598 49.0062 101.598Z" fill="url(#paint2_linear_203_329)"/>
<path d="M335.657 108.716C335.647 108.713 335.637 108.71 335.626 108.707C329.132 178.668 280.358 236.204 215.317 255.147C200.514 259.458 184.89 261.814 168.711 261.814C152.532 261.814 136.907 259.458 122.105 255.147C121.235 262.396 120.736 269.765 120.736 277.261C120.736 325.031 138.963 368.322 168.497 399.989C168.651 399.987 168.803 399.963 168.957 399.954C170.87 399.838 172.732 399.226 174.011 398.587L331.608 295.406C334.435 293.286 336.555 290.459 336.555 286.926V112.368C336.555 111.039 336.181 109.844 335.657 108.716Z" fill="url(#paint3_linear_203_329)"/>
<path d="M331.608 103.887L174.01 1.41351C172.597 0.706546 170.477 0 168.356 0C166.236 0 164.823 0.706546 163.41 1.41351L5.81223 103.887C4.06679 105.196 2.6647 106.808 1.79089 108.657C1.79238 108.673 1.79324 108.69 1.79476 108.707C16.7749 104.109 32.6062 101.598 49.0056 101.598C95.9018 101.598 138.279 121.789 168.71 154.298C199.141 121.789 241.519 101.598 288.415 101.598C304.814 101.598 320.646 104.109 335.626 108.707C335.627 108.69 335.628 108.673 335.63 108.657C334.756 106.808 333.353 105.196 331.608 103.887Z" fill="url(#paint4_linear_203_329)"/>
<path d="M168.71 261.814C184.889 261.814 200.514 259.458 215.316 255.147C210.629 216.087 193.729 181.024 168.71 154.297C143.691 181.024 126.792 216.087 122.105 255.147C136.907 259.458 152.531 261.814 168.71 261.814Z" fill="url(#paint5_linear_203_329)"/>
<defs>
<linearGradient id="paint0_linear_203_329" x1="0.865905" y1="254.353" x2="168.496" y2="254.353" gradientUnits="userSpaceOnUse">
<stop offset="0.0810224" stop-color="#FF008D"/>
<stop offset="1" stop-color="#FFB302"/>
</linearGradient>
<linearGradient id="paint1_linear_203_329" x1="168.711" y1="178.373" x2="335.626" y2="178.373" gradientUnits="userSpaceOnUse">
<stop offset="0.0810224" stop-color="#FF008D"/>
<stop offset="1" stop-color="#FFB302"/>
</linearGradient>
<linearGradient id="paint2_linear_203_329" x1="1.79529" y1="178.373" x2="168.711" y2="178.373" gradientUnits="userSpaceOnUse">
<stop stop-color="#00ABFF"/>
<stop offset="1" stop-color="#3D0082"/>
</linearGradient>
<linearGradient id="paint3_linear_203_329" x1="120.736" y1="254.348" x2="336.555" y2="254.348" gradientUnits="userSpaceOnUse">
<stop stop-color="#00ABFF"/>
<stop offset="1" stop-color="#3D0082"/>
</linearGradient>
<linearGradient id="paint4_linear_203_329" x1="1.79089" y1="77.1489" x2="335.63" y2="77.1489" gradientUnits="userSpaceOnUse">
<stop stop-color="#360072"/>
<stop offset="1" stop-color="#C20097"/>
</linearGradient>
<linearGradient id="paint5_linear_203_329" x1="122.105" y1="208.056" x2="215.316" y2="208.056" gradientUnits="userSpaceOnUse">
<stop stop-color="#360072"/>
<stop offset="1" stop-color="#C20097"/>
</linearGradient>
</defs>
</svg>
